<?xml version="1.0" standalone="no"?>
<!DOCTYPE svg PUBLIC "-//W3C//DTD SVG 20010904//EN"
 "http://www.w3.org/TR/2001/REC-SVG-20010904/DTD/svg10.dtd">
<svg version="1.0" xmlns="http://www.w3.org/2000/svg"
 width="857.000000pt" height="552.000000pt" viewBox="0 0 857.000000 552.000000"
 preserveAspectRatio="xMidYMid meet">

<g transform="translate(0.000000,552.000000) scale(0.100000,-0.100000)"
fill="#000000" stroke="none">
<path d="M4073 5350 c0 -41 2 -65 4 -52 6 28 18 28 37 0 9 -12 18 -19 21 -16
3 3 -3 16 -14 29 -19 24 -19 24 1 47 12 12 17 22 11 22 -5 0 -18 -10 -29 -21
l-19 -21 -6 43 c-5 35 -6 28 -6 -31z"/>
<path d="M4610 5410 c0 -5 5 -10 10 -10 6 0 10 5 10 10 0 6 -4 10 -10 10 -5 0
-10 -4 -10 -10z"/>
<path d="M4660 5351 c0 -68 0 -69 28 -69 36 0 52 15 52 48 0 32 -23 55 -45 46
-11 -4 -15 1 -15 19 0 14 -4 25 -10 25 -6 0 -10 -30 -10 -69z m55 -22 c0 -24
-5 -34 -15 -34 -16 0 -25 37 -16 62 10 26 31 8 31 -28z"/>
<path d="M5348 5401 c-14 -20 -12 -121 3 -121 5 0 9 20 9 45 0 29 4 45 13 45
8 0 7 4 -3 10 -13 9 -12 12 4 25 17 13 17 15 3 15 -9 0 -22 -8 -29 -19z"/>
<path d="M5940 5396 c0 -19 -4 -22 -25 -19 -33 7 -54 -34 -37 -72 9 -20 18
-25 42 -23 l30 2 0 68 c0 37 -2 68 -5 68 -3 0 -5 -11 -5 -24z m0 -65 c0 -23
-19 -41 -36 -34 -17 6 -18 60 -1 66 16 6 37 -12 37 -32z"/>
<path d="M5980 5410 c0 -5 5 -10 10 -10 6 0 10 5 10 10 0 6 -4 10 -10 10 -5 0
-10 -4 -10 -10z"/>
<path d="M2842 5343 c1 -40 3 -53 5 -31 4 31 8 37 31 41 l27 4 -27 2 c-21 1
-28 6 -28 20 0 15 8 21 33 24 31 4 31 4 -5 5 l-38 2 2 -67z"/>
<path d="M3750 5345 c0 -37 4 -65 10 -65 6 0 10 14 10 30 0 40 25 39 45 -1 9
-17 19 -29 22 -26 2 3 -1 15 -7 27 -6 12 -9 33 -5 47 8 32 -10 53 -46 53 -29
0 -29 0 -29 -65z m55 30 c0 -11 -8 -21 -17 -23 -14 -3 -18 3 -18 23 0 20 4 26
18 23 9 -2 17 -12 17 -23z"/>
<path d="M4220 5345 l0 -65 33 0 c41 0 67 26 67 67 0 38 -27 63 -68 63 l-32 0
0 -65z m61 45 c27 -15 26 -75 -2 -90 -34 -19 -49 -5 -49 43 0 58 11 68 51 47z"/>
<path d="M5450 5345 c0 -37 4 -65 10 -65 6 0 10 28 10 65 0 37 -4 65 -10 65
-6 0 -10 -28 -10 -65z"/>
<path d="M6239 5395 c-2 -11 -2 -40 1 -65 4 -35 9 -45 25 -48 18 -2 18 -2 3 8
-11 6 -18 23 -18 40 0 17 7 33 18 39 15 9 15 10 0 11 -9 0 -18 8 -20 18 -3 15
-4 14 -9 -3z"/>
<path d="M4478 5389 c-2 -6 -1 -32 2 -58 4 -40 8 -46 30 -48 14 -1 18 0 8 3
-13 4 -18 16 -18 44 0 28 5 40 18 43 16 4 16 5 0 6 -10 0 -18 6 -18 11 0 14
-17 13 -22 -1z"/>
<path d="M4868 5389 c-2 -6 -1 -32 2 -58 4 -40 8 -46 30 -48 14 -1 18 0 8 3
-13 4 -18 16 -18 44 0 28 5 40 18 43 16 4 16 5 0 6 -10 0 -18 6 -18 11 0 14
-17 13 -22 -1z"/>
<path d="M2922 5325 c1 -43 2 -45 5 -13 3 24 12 43 26 53 22 15 22 15 -6 13
-26 -2 -27 -5 -25 -53z"/>
<path d="M2992 5368 c-7 -7 -12 -24 -12 -38 0 -14 5 -31 12 -38 15 -15 55 -16
64 0 5 7 1 9 -13 6 -22 -6 -53 7 -53 22 0 6 16 10 35 10 22 0 35 5 35 13 0 18
-21 37 -40 37 -9 0 -21 -5 -28 -12z m46 -16 c2 -7 -7 -12 -23 -12 -24 0 -26 2
-15 15 14 17 31 16 38 -3z"/>
<path d="M3091 5367 c-28 -28 -1 -97 34 -83 11 4 15 -1 15 -19 0 -14 5 -25 10
-25 6 0 10 29 10 68 l0 69 -29 1 c-15 0 -33 -4 -40 -11z m44 -38 c0 -24 -5
-34 -15 -34 -16 0 -25 37 -16 62 10 26 31 8 31 -28z"/>
<path d="M3194 5335 l1 -50 38 -2 37 -1 0 49 c0 27 -4 49 -10 49 -5 0 -10 -15
-10 -34 0 -39 -21 -64 -38 -44 -6 7 -12 29 -15 48 -3 23 -4 18 -3 -15z"/>
<path d="M3302 5368 c-7 -7 -12 -24 -12 -38 0 -14 5 -31 12 -38 15 -15 55 -16
64 0 5 8 2 9 -9 5 -22 -8 -47 2 -47 19 0 9 11 14 30 14 18 0 30 5 30 13 0 18
-21 37 -40 37 -9 0 -21 -5 -28 -12z m48 -13 c11 -13 8 -15 -14 -15 -25 0 -33
10 -19 23 10 11 19 8 33 -8z"/>
<path d="M3402 5325 c1 -42 2 -44 5 -13 4 39 28 67 43 52 5 -5 11 -27 13 -49
3 -33 4 -31 3 10 -1 49 -1 50 -33 50 l-33 1 2 -51z"/>
<path d="M3512 5368 c-7 -7 -12 -24 -12 -38 0 -14 5 -31 12 -38 15 -15 45 -15
54 0 5 8 2 9 -11 5 -22 -9 -45 9 -45 34 0 21 28 39 49 31 8 -3 11 0 7 7 -9 15
-39 14 -54 -1z"/>
<path d="M3590 5374 c0 -5 8 -31 17 -57 17 -48 17 -49 -2 -64 -19 -14 -19 -15
-1 -11 13 2 27 23 43 67 26 70 23 98 -3 35 l-17 -39 -11 32 c-11 32 -26 53
-26 37z"/>
<path d="M3864 5368 c-5 -8 -2 -9 11 -5 9 4 24 2 33 -5 13 -11 11 -14 -14 -18
-23 -4 -29 -10 -29 -30 0 -21 5 -25 33 -26 31 -1 32 0 32 41 0 30 -5 45 -16
49 -24 9 -42 7 -50 -6z m56 -47 c0 -5 -7 -14 -15 -21 -18 -15 -42 1 -31 19 8
13 46 15 46 2z"/>
<path d="M3960 5329 c0 -27 5 -49 10 -49 6 0 10 18 10 39 0 24 5 41 14 44 20
8 26 -2 26 -45 0 -21 5 -38 10 -38 14 0 12 76 -2 88 -7 5 -25 10 -40 10 -27 0
-28 -3 -28 -49z"/>
<path d="M4353 5330 c0 -30 2 -43 4 -27 2 15 2 39 0 55 -2 15 -4 2 -4 -28z"/>
<path d="M4397 5373 c-16 -15 -6 -41 19 -47 30 -8 26 -32 -5 -29 -11 2 -21 -2
-21 -7 0 -14 44 -12 58 2 18 18 15 26 -18 43 -32 17 -31 40 1 32 11 -3 19 -1
19 4 0 10 -43 12 -53 2z"/>
<path d="M4540 5328 c0 -26 5 -48 10 -48 6 0 10 15 10 34 0 24 7 39 21 50 21
14 21 15 -10 14 -30 -1 -31 -2 -31 -50z"/>
<path d="M4610 5330 c0 -27 5 -50 10 -50 6 0 10 23 10 50 0 28 -4 50 -10 50
-5 0 -10 -22 -10 -50z"/>
<path d="M4760 5349 c0 -47 16 -68 50 -67 29 1 30 3 30 50 0 59 -18 64 -22 6
-2 -30 -8 -43 -18 -43 -10 0 -16 13 -18 43 -4 48 -22 58 -22 11z"/>
<path d="M4943 5330 c0 -30 2 -43 4 -27 2 15 2 39 0 55 -2 15 -4 2 -4 -28z"/>
<path d="M4993 5373 c-7 -2 -13 -22 -13 -44 0 -33 3 -39 27 -45 19 -5 30 -2
40 11 33 47 -3 99 -54 78z m47 -43 c0 -30 -21 -45 -39 -27 -23 23 -4 71 25 60
8 -3 14 -18 14 -33z"/>
<path d="M5080 5329 c0 -27 5 -49 10 -49 6 0 10 18 10 39 0 24 5 41 14 44 20
8 26 -2 26 -45 0 -21 5 -38 10 -38 14 0 12 76 -2 88 -7 5 -25 10 -40 10 -27 0
-28 -3 -28 -49z"/>
<path d="M5251 5371 c-8 -5 -14 -24 -14 -41 0 -52 54 -70 75 -25 22 49 -19 93
-61 66z m49 -40 c0 -26 -21 -43 -37 -30 -16 14 -17 41 -1 57 14 14 38 -2 38
-27z"/>
<path d="M5500 5329 c0 -27 5 -49 10 -49 6 0 10 18 10 39 0 24 5 41 14 44 20
8 26 -2 26 -45 0 -21 5 -38 10 -38 14 0 12 76 -2 88 -7 5 -25 10 -40 10 -27 0
-28 -3 -28 -49z"/>
<path d="M5611 5367 c-16 -16 -14 -62 4 -77 8 -6 23 -9 35 -5 20 6 21 5 10
-15 -8 -15 -17 -19 -31 -15 -11 4 -19 2 -19 -4 0 -15 43 -14 58 1 7 7 12 37
12 68 0 53 -1 55 -29 57 -15 1 -33 -3 -40 -10z m49 -17 c8 -14 8 -26 0 -41
-14 -25 -34 -20 -38 10 -7 47 18 68 38 31z"/>
<path d="M5710 5329 c0 -27 5 -49 10 -49 6 0 10 16 10 36 0 23 6 41 17 49 15
11 14 13 -10 13 -26 0 -27 -3 -27 -49z"/>
<path d="M5778 5355 c-16 -35 3 -75 36 -75 14 0 28 5 32 12 5 8 2 9 -9 5 -22
-8 -47 2 -47 19 0 9 11 14 30 14 23 0 30 5 30 19 0 37 -55 42 -72 6z m43 -13
c-28 -4 -40 6 -21 18 9 6 20 4 29 -3 12 -10 11 -13 -8 -15z"/>
<path d="M5980 5330 c0 -27 5 -50 10 -50 6 0 10 23 10 50 0 28 -4 50 -10 50
-5 0 -10 -22 -10 -50z"/>
<path d="M6034 5355 c-15 -23 -15 -27 0 -50 17 -25 66 -36 66 -14 0 6 -7 8
-16 5 -17 -6 -44 9 -44 25 0 5 16 9 35 9 38 0 40 2 25 31 -15 27 -46 24 -66
-6z m54 -3 c2 -7 -7 -12 -22 -12 -27 0 -35 15 -13 23 17 7 30 3 35 -11z"/>
<path d="M6130 5329 c0 -27 5 -49 10 -49 6 0 10 18 10 39 0 24 5 41 14 44 20
8 26 -2 26 -45 0 -21 5 -38 10 -38 14 0 12 76 -2 88 -7 5 -25 10 -40 10 -27 0
-28 -3 -28 -49z"/>
<path d="M6307 5373 c-16 -15 -6 -41 19 -47 30 -8 26 -32 -5 -29 -11 2 -21 -2
-21 -7 0 -14 44 -12 58 2 18 18 15 26 -18 43 -32 17 -31 40 1 32 11 -3 19 -1
19 4 0 10 -43 12 -53 2z"/>
<path d="M3693 5323 c9 -2 23 -2 30 0 6 3 -1 5 -18 5 -16 0 -22 -2 -12 -5z"/>
<path d="M730 5151 c0 -46 -2 -50 -27 -54 l-28 -4 28 -2 c23 -1 27 -5 27 -30
0 -16 -6 -32 -12 -34 -10 -4 -10 -6 0 -6 7 -1 12 -16 12 -40 0 -22 -5 -42 -12
-44 -10 -4 -10 -6 0 -6 7 -1 12 -16 12 -40 0 -22 -5 -42 -12 -44 -10 -4 -10
-6 0 -6 8 -1 12 -18 12 -50 0 -30 -5 -51 -12 -54 -10 -4 -10 -6 0 -6 8 -1 12
-21 12 -65 0 -42 -4 -66 -12 -69 -10 -4 -10 -6 0 -6 8 -1 12 -23 12 -75 0 -50
-4 -76 -12 -79 -10 -4 -10 -6 0 -6 9 -1 12 -27 12 -95 0 -66 -4 -96 -12 -99
-10 -4 -10 -6 0 -6 9 -1 12 -37 12 -145 0 -106 -3 -146 -12 -149 -10 -4 -10
-6 0 -6 9 -1 12 -56 12 -240 l0 -240 -27 -4 -28 -4 28 -2 c24 -1 27 -5 27 -35
0 -19 -6 -37 -12 -39 -10 -4 -10 -6 0 -6 16 -1 16 -68 0 -74 -10 -4 -10 -6 0
-6 16 -1 16 -88 0 -94 -10 -4 -10 -6 0 -6 8 -1 12 -18 12 -50 0 -30 -5 -51
-12 -54 -10 -4 -10 -6 0 -6 8 -1 12 -20 12 -60 0 -38 -4 -61 -12 -64 -10 -4
-10 -6 0 -6 8 -1 12 -23 12 -75 0 -50 -4 -76 -12 -79 -10 -4 -10 -6 0 -6 9 -1
12 -28 12 -100 0 -70 -4 -101 -12 -104 -10 -4 -10 -6 0 -6 17 -1 17 -277 0
-284 -10 -4 -10 -6 0 -6 9 -1 12 -57 12 -245 l0 -245 -27 -4 -28 -4 28 -2 c24
-1 27 -5 27 -35 0 -19 -6 -37 -12 -39 -10 -4 -10 -6 0 -6 16 -1 16 -68 0 -74
-10 -4 -10 -6 0 -6 16 -1 16 -88 0 -94 -10 -4 -10 -6 0 -6 8 -1 12 -18 12 -50
0 -30 -5 -51 -12 -54 -10 -4 -10 -6 0 -6 17 -1 17 -117 0 -124 -10 -4 -10 -6
0 -6 17 -1 17 -147 0 -154 -10 -4 -10 -6 0 -6 17 -1 17 -197 0 -204 -10 -4
-10 -6 0 -6 17 -1 17 -277 0 -284 -10 -4 -10 -6 0 -6 6 -1 12 -12 12 -26 0
-18 5 -25 19 -25 11 0 22 -6 24 -12 4 -10 6 -10 6 0 1 17 147 17 154 0 4 -10
6 -10 6 0 1 8 22 12 70 12 68 0 70 -1 74 -28 l4 -27 2 28 1 27 474 0 c370 0
475 -3 479 -12 4 -10 6 -10 6 0 1 18 547 18 554 0 4 -10 6 -10 6 0 1 9 46 12
190 12 142 0 191 -3 194 -12 4 -10 6 -10 6 0 1 9 38 12 150 12 110 0 151 -3
154 -12 4 -10 6 -10 6 0 1 9 32 12 120 12 86 0 121 -3 124 -12 4 -10 6 -10 6
0 1 17 207 17 214 0 4 -10 6 -10 6 0 1 8 25 12 85 12 58 0 86 -4 89 -12 4 -10
6 -10 6 0 1 17 147 17 154 0 4 -10 6 -10 6 0 1 8 22 12 70 12 68 0 70 -1 74
-27 l4 -28 2 28 1 27 474 0 c370 0 475 -3 479 -12 4 -10 6 -10 6 0 1 9 63 12
275 12 210 0 276 -3 279 -12 4 -10 6 -10 6 0 1 18 377 18 384 0 4 -10 6 -10 6
0 1 9 38 12 150 12 110 0 151 -3 154 -12 4 -10 6 -10 6 0 1 17 237 17 244 0 4
-10 6 -10 6 0 1 9 29 12 105 12 74 0 106 -4 109 -12 4 -10 6 -10 6 0 1 17 167
17 174 0 4 -10 6 -10 6 0 1 17 147 17 154 0 4 -10 6 -10 6 0 1 8 22 12 70 12
68 0 70 -1 74 -27 l4 -28 2 28 1 27 474 0 c370 0 475 -3 479 -12 4 -10 6 -10
6 0 1 7 16 12 41 12 l40 0 0 2315 0 2315 -3880 0 -3880 0 0 -49z m7750 -2266
l0 -2305 -3870 0 -3870 0 0 2305 0 2305 3870 0 3870 0 0 -2305z"/>
<path d="M1052 5018 c-15 -15 -15 -51 0 -66 28 -28 78 -7 78 33 0 27 -18 45
-45 45 -12 0 -26 -5 -33 -12z"/>
<path d="M2012 4568 c-28 -28 -7 -78 33 -78 27 0 45 18 45 45 0 27 -18 45 -45
45 -12 0 -26 -5 -33 -12z"/>
<path d="M2572 4558 c-7 -7 -12 -21 -12 -33 0 -12 5 -26 12 -33 7 -7 21 -12
33 -12 12 0 26 5 33 12 7 7 12 21 12 33 0 12 -5 26 -12 33 -7 7 -21 12 -33 12
-12 0 -26 -5 -33 -12z"/>
<path d="M2962 4468 c-7 -7 -12 -21 -12 -33 0 -12 5 -26 12 -33 7 -7 21 -12
33 -12 12 0 26 5 33 12 7 7 12 21 12 33 0 12 -5 26 -12 33 -7 7 -21 12 -33 12
-12 0 -26 -5 -33 -12z"/>
<path d="M3272 4448 c-7 -7 -12 -21 -12 -33 0 -12 5 -26 12 -33 7 -7 21 -12
33 -12 12 0 26 5 33 12 7 7 12 21 12 33 0 12 -5 26 -12 33 -7 7 -21 12 -33 12
-12 0 -26 -5 -33 -12z"/>
<path d="M3742 4378 c-7 -7 -12 -21 -12 -33 0 -12 5 -26 12 -33 7 -7 21 -12
33 -12 12 0 26 5 33 12 7 7 12 21 12 33 0 12 -5 26 -12 33 -7 7 -21 12 -33 12
-12 0 -26 -5 -33 -12z"/>
<path d="M3922 4268 c-7 -7 -12 -21 -12 -33 0 -12 5 -26 12 -33 7 -7 21 -12
33 -12 12 0 26 5 33 12 7 7 12 21 12 33 0 12 -5 26 -12 33 -7 7 -21 12 -33 12
-12 0 -26 -5 -33 -12z"/>
<path d="M4082 4208 c-7 -7 -12 -21 -12 -33 0 -12 5 -26 12 -33 7 -7 21 -12
33 -12 12 0 26 5 33 12 7 7 12 21 12 33 0 12 -5 26 -12 33 -7 7 -21 12 -33 12
-12 0 -26 -5 -33 -12z"/>
<path d="M4232 4068 c-7 -7 -12 -21 -12 -33 0 -12 5 -26 12 -33 7 -7 21 -12
33 -12 12 0 26 5 33 12 7 7 12 21 12 33 0 12 -5 26 -12 33 -7 7 -21 12 -33 12
-12 0 -26 -5 -33 -12z"/>
<path d="M4362 3978 c-7 -7 -12 -21 -12 -33 0 -12 5 -26 12 -33 7 -7 21 -12
33 -12 12 0 26 5 33 12 7 7 12 21 12 33 0 12 -5 26 -12 33 -7 7 -21 12 -33 12
-12 0 -26 -5 -33 -12z"/>
<path d="M4482 3898 c-7 -7 -12 -21 -12 -33 0 -12 5 -26 12 -33 7 -7 21 -12
33 -12 12 0 26 5 33 12 7 7 12 21 12 33 0 12 -5 26 -12 33 -7 7 -21 12 -33 12
-12 0 -26 -5 -33 -12z"/>
<path d="M4592 3808 c-7 -7 -12 -21 -12 -33 0 -12 5 -26 12 -33 7 -7 21 -12
33 -12 12 0 26 5 33 12 7 7 12 21 12 33 0 12 -5 26 -12 33 -7 7 -21 12 -33 12
-12 0 -26 -5 -33 -12z"/>
<path d="M4692 3778 c-7 -7 -12 -21 -12 -33 0 -12 5 -26 12 -33 7 -7 21 -12
33 -12 12 0 26 5 33 12 7 7 12 21 12 33 0 12 -5 26 -12 33 -7 7 -21 12 -33 12
-12 0 -26 -5 -33 -12z"/>
<path d="M4792 3758 c-7 -7 -12 -21 -12 -33 0 -12 5 -26 12 -33 7 -7 21 -12
33 -12 12 0 26 5 33 12 7 7 12 21 12 33 0 12 -5 26 -12 33 -7 7 -21 12 -33 12
-12 0 -26 -5 -33 -12z"/>
<path d="M4882 3708 c-31 -31 -2 -84 42 -76 15 3 27 -1 35 -14 23 -36 81 -16
81 28 0 29 -24 47 -54 42 -15 -3 -27 1 -35 14 -13 20 -51 24 -69 6z"/>
<path d="M5122 3648 c-7 -7 -12 -21 -12 -33 0 -12 5 -26 12 -33 7 -7 21 -12
33 -12 12 0 26 5 33 12 7 7 12 21 12 33 0 12 -5 26 -12 33 -7 7 -21 12 -33 12
-12 0 -26 -5 -33 -12z"/>
<path d="M5252 3628 c-7 -7 -12 -21 -12 -33 0 -12 5 -26 12 -33 7 -7 21 -12
33 -12 12 0 26 5 33 12 7 7 12 21 12 33 0 12 -5 26 -12 33 -7 7 -21 12 -33 12
-12 0 -26 -5 -33 -12z"/>
<path d="M5322 3518 c-26 -26 -7 -78 29 -78 9 0 22 -7 29 -15 7 -8 20 -15 29
-15 9 0 21 -8 28 -19 14 -23 108 -38 129 -20 17 14 18 53 2 66 -7 6 -33 13
-57 17 -27 4 -50 15 -58 26 -8 11 -22 20 -32 20 -10 0 -24 7 -31 15 -15 18
-51 20 -68 3z"/>
<path d="M5602 3418 c-7 -7 -12 -21 -12 -33 0 -12 5 -26 12 -33 7 -7 21 -12
33 -12 12 0 26 5 33 12 7 7 12 21 12 33 0 12 -5 26 -12 33 -7 7 -21 12 -33 12
-12 0 -26 -5 -33 -12z"/>
<path d="M5700 3396 c-15 -19 -9 -57 10 -66 8 -4 25 -12 37 -18 31 -16 58 -15
73 2 15 19 9 57 -10 66 -8 4 -25 12 -37 18 -31 16 -58 15 -73 -2z"/>
<path d="M5882 3358 c-31 -31 -2 -84 42 -76 15 3 27 0 30 -7 5 -15 62 -45 85
-45 9 0 22 -9 29 -20 7 -11 23 -20 37 -20 14 0 25 -6 25 -13 0 -15 51 -65 71
-67 33 -5 50 1 58 22 11 32 2 58 -24 68 -13 5 -26 14 -30 19 -3 6 -16 11 -28
11 -13 0 -26 9 -32 23 -6 12 -21 24 -35 25 -14 2 -29 10 -33 18 -11 20 -74 47
-95 42 -12 -3 -24 2 -31 13 -13 21 -51 25 -69 7z"/>
<path d="M6342 3158 c-31 -31 -2 -84 42 -76 15 3 27 -1 35 -14 6 -10 19 -18
28 -18 13 0 14 -3 5 -12 -27 -27 -7 -78 30 -78 12 0 18 -7 18 -21 0 -25 36
-79 53 -79 7 0 18 -9 25 -20 7 -11 19 -20 28 -20 13 0 14 -3 4 -14 -17 -21 -8
-60 16 -70 12 -5 32 -26 44 -45 28 -42 49 -61 67 -61 17 0 53 36 53 54 0 16
-71 96 -86 96 -5 0 -15 9 -22 20 -7 11 -19 20 -28 20 -13 0 -14 3 -4 14 17 21
8 59 -16 70 -11 5 -30 24 -42 43 -13 18 -31 33 -41 33 -14 0 -21 8 -23 27 -2
17 -12 32 -26 39 -15 7 -20 14 -13 18 16 10 13 52 -4 66 -8 7 -26 10 -39 8
-15 -3 -27 1 -35 14 -13 20 -51 24 -69 6z"/>
<path d="M6862 2658 c-26 -26 -8 -78 28 -78 17 0 40 -43 40 -76 0 -13 4 -25
10 -29 5 -3 7 -12 4 -20 -14 -36 38 -75 75 -56 29 16 35 46 15 83 -31 61 -34
68 -34 91 0 27 -17 47 -40 47 -8 0 -20 10 -25 23 -11 25 -54 34 -73 15z"/>
<path d="M7082 2398 c-28 -28 -7 -78 33 -78 27 0 45 18 45 45 0 27 -18 45 -45
45 -12 0 -26 -5 -33 -12z"/>
<path d="M7142 2308 c-28 -28 -7 -78 33 -78 27 0 45 18 45 45 0 27 -18 45 -45
45 -12 0 -26 -5 -33 -12z"/>
<path d="M7200 2220 c-11 -11 -20 -27 -20 -35 0 -19 36 -55 55 -55 19 0 55 36
55 55 0 19 -36 55 -55 55 -8 0 -24 -9 -35 -20z"/>
<path d="M7324 2119 c-38 -14 -36 -81 3 -91 27 -7 59 7 65 29 12 46 -24 79
-68 62z"/>
<path d="M7400 1980 c-11 -11 -20 -27 -20 -35 0 -19 36 -55 55 -55 19 0 55 36
55 55 0 19 -36 55 -55 55 -8 0 -24 -9 -35 -20z"/>
<path d="M7520 1820 c-11 -11 -20 -27 -20 -35 0 -19 36 -55 55 -55 19 0 55 36
55 55 0 19 -36 55 -55 55 -8 0 -24 -9 -35 -20z"/>
<path d="M7710 1610 c-11 -11 -20 -27 -20 -35 0 -19 36 -55 55 -55 19 0 55 36
55 55 0 19 -36 55 -55 55 -8 0 -24 -9 -35 -20z"/>
<path d="M7830 1320 c-11 -11 -20 -27 -20 -35 0 -19 36 -55 55 -55 19 0 55 36
55 55 0 19 -36 55 -55 55 -8 0 -24 -9 -35 -20z"/>
<path d="M8090 820 c-11 -11 -20 -27 -20 -35 0 -19 36 -55 55 -55 19 0 55 36
55 55 0 19 -36 55 -55 55 -8 0 -24 -9 -35 -20z"/>
<path d="M578 5153 c6 -2 12 -17 12 -33 0 -16 -6 -31 -12 -33 -7 -3 -4 -6 7
-6 18 -1 20 4 17 39 -3 29 -8 40 -21 39 -10 0 -11 -2 -3 -6z"/>
<path d="M330 5119 c0 -5 5 -7 10 -4 6 4 10 -10 10 -34 0 -22 -5 -42 -12 -44
-7 -3 3 -5 22 -5 19 0 27 2 18 5 -14 3 -18 15 -18 49 0 32 -4 44 -15 44 -8 0
-15 -5 -15 -11z"/>
<path d="M412 5118 c-26 -26 -8 -88 25 -88 23 0 38 46 25 75 -13 27 -31 32
-50 13z m33 -38 c0 -38 -20 -52 -30 -21 -8 27 3 63 18 58 7 -2 12 -19 12 -37z"/>
<path d="M503 5113 c9 -2 25 -2 35 0 9 3 1 5 -18 5 -19 0 -27 -2 -17 -5z"/>
<path d="M122 4018 c-17 -5 -32 -10 -32 -11 0 -1 27 -2 59 -2 33 0 57 3 55 6
-7 12 -49 15 -82 7z"/>
<path d="M130 3965 c-19 -23 -8 -50 24 -53 31 -4 46 11 45 43 -1 17 -2 16 -8
-4 -10 -37 -31 -38 -31 -2 0 34 -11 39 -30 16z m20 -26 c0 -11 -4 -17 -10 -14
-5 3 -10 13 -10 21 0 8 5 14 10 14 6 0 10 -9 10 -21z"/>
<path d="M90 3880 c0 -5 25 -10 55 -10 30 0 55 5 55 10 0 6 -25 10 -55 10 -30
0 -55 -4 -55 -10z"/>
<path d="M130 3835 c-6 -8 -10 -22 -7 -32 4 -14 5 -13 6 5 0 12 4 22 9 22 4 0
12 -10 17 -22 15 -34 39 -29 43 10 3 30 1 32 -26 32 -16 0 -35 -7 -42 -15z
m58 -23 c2 -7 -3 -12 -12 -12 -9 0 -16 7 -16 16 0 17 22 14 28 -4z"/>
<path d="M123 3740 c2 -21 7 -25 37 -25 30 0 35 4 37 25 3 25 3 25 -7 3 -5
-13 -18 -23 -30 -23 -12 0 -25 10 -30 23 -10 22 -10 22 -7 -3z"/>
<path d="M155 3671 c-8 -26 -22 -27 -28 -3 -4 13 -5 12 -6 -4 -2 -34 26 -38
43 -6 l15 27 10 -25 11 -25 -3 25 c-3 31 -33 39 -42 11z"/>
<path d="M124 3544 c2 -48 61 -59 73 -14 7 27 23 25 24 -2 1 -18 2 -19 6 -5 8
29 -16 47 -62 47 -39 0 -42 -2 -41 -26z m68 -6 c-8 -30 -62 -33 -62 -3 0 15
16 23 46 21 14 -1 19 -6 16 -18z"/>
<path d="M583 3503 c21 -6 22 -26 2 -43 -22 -18 -18 -30 8 -30 17 0 19 2 8 9
-12 8 -12 12 -2 25 17 20 7 46 -16 45 -17 -1 -17 -2 0 -6z"/>
<path d="M124 3466 c-12 -30 4 -47 38 -44 28 2 33 7 33 28 0 21 -5 26 -33 28
-22 2 -34 -2 -38 -12z m61 -16 c0 -18 -33 -26 -47 -12 -6 6 -7 15 -3 22 10 16
50 8 50 -10z"/>
<path d="M330 3469 c0 -5 5 -7 10 -4 6 4 10 -10 10 -34 0 -22 -5 -42 -12 -44
-7 -3 3 -5 22 -5 19 0 27 2 18 5 -14 3 -18 15 -18 49 0 32 -4 44 -15 44 -8 0
-15 -5 -15 -11z"/>
<path d="M412 3468 c-26 -26 -8 -88 25 -88 23 0 38 46 25 75 -13 27 -31 32
-50 13z m33 -38 c0 -38 -20 -52 -30 -21 -8 27 3 63 18 58 7 -2 12 -19 12 -37z"/>
<path d="M503 3463 c9 -2 25 -2 35 0 9 3 1 5 -18 5 -19 0 -27 -2 -17 -5z"/>
<path d="M90 3390 c0 -5 25 -10 55 -10 30 0 55 5 55 10 0 6 -25 10 -55 10 -30
0 -55 -4 -55 -10z"/>
<path d="M90 3352 c0 -20 84 -29 110 -12 11 7 3 8 -26 4 -24 -4 -50 -1 -63 5
-11 7 -21 8 -21 3z"/>
<path d="M120 3260 c0 -5 11 -12 25 -16 32 -8 32 -20 -1 -28 -15 -4 -24 -9
-21 -12 3 -3 24 0 47 7 35 11 43 10 52 -2 8 -12 9 -12 6 1 -5 16 -108 65 -108
50z"/>
<path d="M124 3156 c3 -49 68 -44 73 5 3 23 2 23 -6 3 -5 -12 -14 -25 -19 -28
-15 -9 -40 4 -45 22 -3 13 -4 12 -3 -2z"/>
<path d="M126 3088 c-12 -37 -3 -48 38 -47 l41 2 -35 6 c-22 4 -35 12 -35 21
0 9 13 17 35 21 l35 6 -38 2 c-22 0 -39 -4 -41 -11z"/>
<path d="M129 3004 c-17 -20 -1 -48 31 -52 25 -4 40 13 39 43 -1 17 -2 16 -8
-4 -10 -37 -31 -38 -31 -2 0 34 -11 39 -31 15z m21 -25 c0 -11 -4 -17 -10 -14
-5 3 -10 13 -10 21 0 8 5 14 10 14 6 0 10 -9 10 -21z"/>
<path d="M120 2921 c0 -6 14 -11 32 -13 46 -4 49 -28 4 -28 -20 0 -36 -4 -36
-10 0 -14 54 -12 68 2 7 7 12 22 12 35 0 20 -5 23 -40 23 -22 0 -40 -4 -40 -9z"/>
<path d="M124 2814 c2 -51 71 -59 71 -8 0 10 9 22 20 26 12 3 -4 6 -36 7 -54
1 -56 0 -55 -25z m50 10 c9 -3 16 -12 16 -19 0 -16 -25 -26 -45 -19 -18 7 -20
30 -2 37 6 3 13 6 14 6 1 1 8 -2 17 -5z"/>
<path d="M130 2745 c-19 -23 -8 -50 24 -53 31 -4 46 11 45 43 -1 17 -2 16 -8
-4 -10 -37 -31 -38 -31 -2 0 34 -11 39 -30 16z m20 -26 c0 -11 -4 -17 -10 -14
-5 3 -10 13 -10 21 0 8 5 14 10 14 6 0 10 -9 10 -21z"/>
<path d="M123 2661 c1 -18 7 -21 42 -20 33 2 35 3 10 6 -16 2 -35 11 -42 20
-10 13 -12 13 -10 -6z"/>
<path d="M101 2603 l-1 -33 53 1 c28 1 40 4 25 6 -18 3 -28 12 -31 26 l-4 22
-2 -22 c-2 -33 -29 -29 -34 5 -4 25 -4 25 -6 -5z"/>
<path d="M90 2490 c0 -5 7 -10 15 -10 8 0 15 -9 15 -19 0 -22 30 -35 60 -26
14 4 20 15 20 36 0 29 -1 29 -55 29 -30 0 -55 -4 -55 -10z m95 -30 c0 -18 -33
-26 -47 -12 -6 6 -7 15 -3 22 10 16 50 8 50 -10z"/>
<path d="M127 2403 c-28 -27 17 -72 53 -53 19 10 29 60 12 60 -5 0 -8 -10 -8
-21 1 -12 -5 -24 -11 -26 -8 -3 -13 5 -13 21 0 24 -18 35 -33 19z m23 -25 c0
-16 -3 -19 -11 -11 -6 6 -8 16 -5 22 11 17 16 13 16 -11z"/>
<path d="M121 2298 c1 -29 2 -30 8 -10 l6 24 27 -21 c35 -28 38 -27 37 12 -1
23 -3 26 -6 10 -5 -28 -15 -29 -38 -3 -26 28 -35 25 -34 -12z"/>
<path d="M138 2243 c12 -2 32 -2 45 0 12 2 2 4 -23 4 -25 0 -35 -2 -22 -4z"/>
<path d="M118 2203 c18 -2 45 -2 60 0 15 2 0 4 -33 4 -33 0 -45 -2 -27 -4z"/>
<path d="M127 2163 c-4 -3 -7 -16 -6 -27 0 -19 1 -19 11 4 l11 25 6 -25 c10
-36 46 -34 47 3 1 24 -3 27 -31 27 -17 0 -35 -3 -38 -7z m58 -21 c0 -18 -20
-15 -23 4 -3 10 1 15 10 12 7 -3 13 -10 13 -16z"/>
<path d="M134 2082 c-6 -4 -11 -28 -11 -54 l1 -48 40 1 41 2 -34 6 c-48 9 -50
28 -4 38 l38 7 -34 6 c-48 7 -53 30 -7 30 20 0 36 5 36 10 0 12 -50 13 -66 2z"/>
<path d="M123 1948 c1 -26 4 -28 42 -27 41 1 40 3 -7 13 -14 3 -29 14 -31 24
-3 9 -4 5 -4 -10z"/>
<path d="M129 1884 c-17 -21 0 -49 31 -49 31 0 48 28 31 49 -8 9 -21 16 -31
16 -10 0 -23 -7 -31 -16z m45 0 c9 -3 16 -12 16 -19 0 -16 -25 -26 -45 -19
-18 7 -20 30 -2 37 6 3 13 6 14 6 1 1 8 -2 17 -5z"/>
<path d="M583 1844 c20 -6 22 -20 5 -27 -10 -4 -10 -6 0 -6 6 -1 12 -7 12 -15
0 -8 -6 -16 -12 -19 -8 -2 -7 -3 2 -3 10 1 15 12 15 36 0 27 -4 35 -20 37 -16
1 -16 1 -2 -3z"/>
<path d="M330 1809 c0 -5 5 -7 10 -4 6 4 10 -10 10 -34 0 -22 -5 -42 -12 -44
-7 -3 3 -5 22 -5 19 0 27 2 18 5 -14 3 -18 15 -18 49 0 32 -4 44 -15 44 -8 0
-15 -5 -15 -11z"/>
<path d="M412 1808 c-26 -26 -8 -88 25 -88 23 0 38 46 25 75 -13 27 -31 32
-50 13z m33 -38 c0 -18 -5 -35 -12 -37 -15 -5 -26 31 -18 58 10 31 30 17 30
-21z"/>
<path d="M135 1801 l40 -6 -37 -22 c-21 -12 -38 -27 -38 -33 0 -5 22 -10 50
-10 28 0 50 5 50 10 0 6 -17 10 -37 10 l-38 1 38 20 c20 11 37 24 37 29 0 6
-24 9 -52 9 -52 -2 -52 -2 -13 -8z"/>
<path d="M503 1803 c9 -2 25 -2 35 0 9 3 1 5 -18 5 -19 0 -27 -2 -17 -5z"/>
<path d="M1144 447 c-9 -25 0 -62 15 -62 8 0 15 6 17 13 1 7 0 8 -3 2 -10 -20
-23 -9 -23 20 0 29 13 40 23 20 3 -6 4 -5 3 2 -4 18 -25 22 -32 5z"/>
<path d="M4328 453 c6 -2 12 -17 12 -33 0 -16 -6 -31 -12 -33 -7 -3 -4 -6 7
-6 18 -1 20 4 17 39 -3 29 -8 40 -21 39 -10 0 -11 -2 -3 -6z"/>
<path d="M7523 453 c21 -6 22 -26 2 -43 -22 -18 -18 -30 8 -30 17 0 19 2 8 9
-12 8 -12 12 -2 25 17 20 7 46 -16 45 -17 -1 -17 -2 0 -6z"/>
<path d="M980 419 c0 -5 5 -7 10 -4 6 4 10 -10 10 -34 0 -22 -5 -42 -12 -44
-7 -3 3 -5 22 -5 19 0 27 2 18 5 -14 3 -18 15 -18 49 0 32 -4 44 -15 44 -8 0
-15 -5 -15 -11z"/>
<path d="M1062 418 c-26 -26 -8 -88 25 -88 23 0 38 46 25 75 -13 27 -31 32
-50 13z m33 -38 c0 -18 -5 -35 -12 -37 -15 -5 -26 31 -18 58 10 31 30 17 30
-21z"/>
<path d="M4160 419 c0 -5 5 -7 10 -4 6 4 10 -10 10 -34 0 -22 -5 -42 -12 -44
-7 -3 3 -5 22 -5 19 0 27 2 18 5 -14 3 -18 15 -18 49 0 32 -4 44 -15 44 -8 0
-15 -5 -15 -11z"/>
<path d="M4242 418 c-26 -26 -8 -88 25 -88 23 0 38 46 25 75 -13 27 -31 32
-50 13z m33 -38 c0 -38 -20 -52 -30 -21 -8 27 3 63 18 58 7 -2 12 -19 12 -37z"/>
<path d="M7350 419 c0 -5 5 -7 10 -4 6 4 10 -10 10 -34 0 -22 -5 -42 -12 -44
-7 -3 3 -5 22 -5 19 0 27 2 18 5 -14 3 -18 15 -18 49 0 32 -4 44 -15 44 -8 0
-15 -5 -15 -11z"/>
<path d="M7432 418 c-26 -26 -8 -88 25 -88 23 0 38 46 25 75 -13 27 -31 32
-50 13z m33 -38 c0 -38 -20 -52 -30 -21 -8 27 3 63 18 58 7 -2 12 -19 12 -37z"/>
<path d="M4322 185 c0 -33 2 -52 5 -42 2 9 7 17 10 17 4 0 16 -8 27 -17 21
-18 21 -18 2 5 -18 21 -18 23 -1 42 10 11 13 20 8 20 -6 0 -17 -7 -24 -17 -13
-15 -15 -13 -20 18 -5 26 -6 20 -7 -26z"/>
<path d="M4456 224 c-9 -22 -7 -92 2 -97 4 -3 7 21 7 54 0 32 -1 59 -1 59 -1
0 -5 -7 -8 -16z"/>
<path d="M4503 185 c0 -33 2 -45 4 -27 2 18 2 45 0 60 -2 15 -4 0 -4 -33z"/>
<path d="M4993 185 c0 -33 2 -45 4 -27 2 18 2 45 0 60 -2 15 -4 0 -4 -33z"/>
<path d="M5121 219 c6 -13 9 -39 5 -63 -4 -29 -3 -37 4 -26 18 28 10 110 -11
110 -6 0 -5 -10 2 -21z"/>
<path d="M4050 181 c0 -28 5 -51 10 -51 6 0 10 11 10 25 0 32 13 32 40 -2 14
-18 18 -21 11 -7 -6 12 -9 34 -8 50 2 26 -1 29 -30 32 l-33 3 0 -50z m50 24
c0 -8 -7 -15 -15 -15 -8 0 -15 7 -15 15 0 8 7 15 15 15 8 0 15 -7 15 -15z"/>
<path d="M4168 203 c12 -2 22 -8 22 -11 0 -4 -10 -12 -22 -17 -34 -15 -29 -39
10 -43 29 -3 32 -1 32 25 0 35 -16 54 -44 52 -19 -2 -19 -2 2 -6z m20 -45 c-6
-18 -28 -21 -28 -4 0 9 7 16 16 16 9 0 14 -5 12 -12z"/>
<path d="M4230 170 c0 -22 5 -40 10 -40 6 0 10 16 10 35 0 24 5 35 15 35 10 0
15 -11 15 -35 0 -19 5 -35 10 -35 11 0 13 39 4 64 -4 10 -18 16 -35 16 -27 0
-29 -3 -29 -40z"/>
<path d="M4540 191 c-15 -29 4 -63 33 -59 18 2 22 10 22 38 0 28 -4 36 -22 38
-14 2 -26 -4 -33 -17z m45 -21 c0 -27 -22 -39 -31 -16 -8 22 3 49 19 43 6 -2
12 -14 12 -27z"/>
<path d="M4625 190 c-9 -30 3 -58 28 -63 22 -3 22 -4 -3 -15 -22 -9 -23 -11
-4 -11 31 -1 44 19 44 66 0 41 -1 43 -29 43 -21 0 -32 -6 -36 -20z m40 -20 c0
-27 -22 -39 -31 -16 -8 22 3 49 19 43 6 -2 12 -14 12 -27z"/>
<path d="M4754 198 c-4 -7 2 -18 14 -26 28 -18 29 -36 2 -29 -11 3 -20 1 -20
-5 0 -5 12 -8 28 -6 34 4 36 28 2 45 l-24 12 24 10 c24 9 24 10 3 10 -12 1
-25 -4 -29 -11z"/>
<path d="M4830 195 c-19 -23 2 -65 32 -64 l23 0 -22 9 c-14 6 -23 18 -23 30 0
12 9 24 23 30 22 9 22 9 1 9 -12 1 -27 -6 -34 -14z"/>
<path d="M4930 199 l25 -12 -25 -6 c-36 -10 -34 -46 3 -47 26 -1 28 1 25 35
-3 30 -7 36 -28 38 l-25 3 25 -11z m20 -38 c0 -14 -18 -23 -30 -16 -6 4 -8 11
-5 16 8 12 35 12 35 0z"/>
<path d="M5030 191 c-15 -29 3 -61 35 -61 14 0 25 4 25 8 0 5 -10 8 -21 8 -12
-1 -24 5 -26 12 -3 7 5 12 22 12 20 0 26 4 23 18 -5 25 -44 27 -58 3z m45 -1
c3 -5 -3 -10 -15 -10 -12 0 -18 5 -15 10 3 6 10 10 15 10 5 0 12 -4 15 -10z"/>
</g>
</svg>
